<svg width="540" height="150" viewBox="0 0 540 150" fill="none" xmlns="http://www.w3.org/2000/svg">
<rect width="270" height="150" fill="#31B9F9"/>
<path d="M115.802 20.4001H150.152L114.492 126.059C113.742 128.286 111.654 129.784 109.302 129.784H82.5694C79.5491 129.784 77.1 127.335 77.1 124.315C77.1 123.719 77.1973 123.13 77.3857 122.564L110.612 24.1284C111.362 21.9012 113.45 20.4001 115.802 20.4001Z" fill="url(#paint0_linear_9_4)"/>
<path d="M165.719 91.2706H111.247C109.855 91.2675 108.725 92.3979 108.722 93.7895C108.722 94.4914 109.011 95.1599 109.524 95.6369L144.528 128.307C145.546 129.258 146.889 129.787 148.283 129.787H179.128L165.719 91.2706Z" fill="#0078D4"/>
<path d="M115.802 20.4C113.423 20.3909 111.317 21.9315 110.6 24.1982L77.4282 122.479C76.4103 125.317 77.887 128.447 80.725 129.465C81.3205 129.678 81.9495 129.787 82.5846 129.787H110.01C112.089 129.416 113.808 127.955 114.51 125.961L121.125 106.466L144.753 128.505C145.743 129.325 146.986 129.778 148.271 129.787H179.003L165.524 91.2706L126.233 91.2797L150.277 20.4H115.802Z" fill="url(#paint1_linear_9_4)"/>
<path d="M159.678 24.1222C158.927 21.898 156.843 20.4001 154.494 20.4001H116.209C118.555 20.4001 120.642 21.898 121.39 24.1192L154.616 122.564C155.582 125.427 154.045 128.529 151.182 129.495C150.62 129.69 150.031 129.787 149.435 129.787H187.721C190.741 129.787 193.19 127.338 193.19 124.315C193.19 123.719 193.093 123.129 192.901 122.567L159.678 24.1222Z" fill="url(#paint2_linear_9_4)"/>
<rect x="270" width="270" height="150" fill="#512BD4"/>
<path d="M315.873 114.691C313.964 114.691 312.341 113.989 311.005 112.584C309.668 111.142 309 109.431 309 107.45C309 105.432 309.668 103.703 311.005 102.261C312.341 100.82 313.964 100.099 315.873 100.099C317.814 100.099 319.452 100.82 320.789 102.261C322.157 103.703 322.841 105.432 322.841 107.45C322.841 109.431 322.157 111.142 320.789 112.584C319.452 113.989 317.814 114.691 315.873 114.691Z" fill="white"/>
<path d="M392.191 113.503H379.782L347.089 56.5379C346.262 55.0966 345.577 53.601 345.036 52.0518H344.75C345.005 53.7096 345.132 57.2585 345.132 62.6987V113.503H334.154V36H347.375L378.971 91.6136C380.307 93.9201 381.166 95.5053 381.548 96.3698H381.739C381.421 94.3164 381.261 90.8394 381.261 85.9387V36H392.191V113.503Z" fill="white"/>
<path d="M445.648 113.503H407.227V36H444.121V46.9177H418.587V68.8602H442.116V79.7236H418.587V102.639H445.648V113.503Z" fill="white"/>
<path d="M500.25 46.9177H480.587V113.503H469.227V46.9177H449.611V36H500.25V46.9177Z" fill="white"/>
<defs>
<linearGradient id="paint0_linear_9_4" x1="128.323" y1="28.5077" x2="92.6484" y2="133.897" gradientUnits="userSpaceOnUse">
<stop stop-color="#114A8B"/>
<stop offset="1" stop-color="#0669BC"/>
</linearGradient>
<linearGradient id="paint1_linear_9_4" x1="139.465" y1="77.6177" x2="131.214" y2="80.4094" gradientUnits="userSpaceOnUse">
<stop stop-opacity="0.3"/>
<stop offset="0.071" stop-opacity="0.2"/>
<stop offset="0.321" stop-opacity="0.1"/>
<stop offset="0.623" stop-opacity="0.05"/>
<stop offset="1" stop-opacity="0"/>
</linearGradient>
<linearGradient id="paint2_linear_9_4" x1="135.183" y1="25.3361" x2="174.342" y2="129.667" gradientUnits="userSpaceOnUse">
<stop stop-color="#3CCBF4"/>
<stop offset="1" stop-color="#2892DF"/>
</linearGradient>
</defs>
</svg>
