<svg width="1800" height="500" viewBox="0 0 1800 500" fill="none" xmlns="http://www.w3.org/2000/svg">
<rect x="900" width="900" height="500" fill="#31B9F9"/>
<path d="M1286.01 68.0001H1400.51L1281.64 420.195C1279.14 427.619 1272.18 432.613 1264.34 432.613H1175.23C1165.16 432.613 1157 424.449 1157 414.382C1157 412.396 1157.32 410.432 1157.95 408.548L1268.71 80.4277C1271.21 73.0036 1278.17 68.0001 1286.01 68.0001Z" fill="url(#paint0_linear_8_39)"/>
<path d="M1452.4 304.235H1270.82C1266.18 304.225 1262.42 307.993 1262.41 312.632C1262.41 314.971 1263.37 317.2 1265.08 318.79L1381.76 427.69C1385.15 430.861 1389.63 432.623 1394.28 432.623H1497.09L1452.4 304.235Z" fill="#0078D4"/>
<path d="M1286.01 68.0001C1278.08 67.9697 1271.06 73.1049 1268.67 80.6606L1158.09 408.264C1154.7 417.724 1159.62 428.156 1169.08 431.549C1171.07 432.258 1173.16 432.623 1175.28 432.623H1266.7C1273.63 431.387 1279.36 426.516 1281.7 419.871L1303.75 354.887L1382.51 428.349C1385.81 431.083 1389.95 432.593 1394.24 432.623H1496.68L1451.75 304.235L1320.78 304.266L1400.92 68.0001H1286.01Z" fill="url(#paint1_linear_8_39)"/>
<path d="M1432.26 80.4074C1429.76 72.9934 1422.81 68.0001 1414.98 68.0001H1287.36C1295.18 68.0001 1302.14 72.9934 1304.63 80.3973L1415.39 408.548C1418.61 418.089 1413.48 428.43 1403.94 431.651C1402.07 432.299 1400.1 432.623 1398.12 432.623H1525.73C1535.8 432.623 1543.97 424.459 1543.97 414.382C1543.97 412.396 1543.64 410.432 1543 408.558L1432.26 80.4074Z" fill="url(#paint2_linear_8_39)"/>
<rect width="900" height="500" fill="#512BD4"/>
<path d="M117.409 373.055C111.045 373.055 105.636 370.714 101.182 366.029C96.7269 361.225 94.4996 355.52 94.4996 348.915C94.4996 342.189 96.7269 336.425 101.182 331.621C105.636 326.816 111.045 324.414 117.409 324.414C123.879 324.414 129.341 326.816 133.795 331.621C138.356 336.425 140.636 342.189 140.636 348.915C140.636 355.52 138.356 361.225 133.795 366.029C129.341 370.714 123.879 373.055 117.409 373.055Z" fill="white"/>
<path d="M371.803 369.092H330.439L221.462 179.21C218.705 174.405 216.423 169.42 214.621 164.256H213.666C214.514 169.782 214.939 181.612 214.939 199.746V369.092H178.347V110.75H222.415L327.735 296.129C332.189 303.817 335.053 309.101 336.326 311.983H336.962C335.902 305.138 335.371 293.548 335.371 277.212V110.75H371.803V369.092Z" fill="white"/>
<path d="M549.991 369.092H421.923V110.75H544.901V147.142H459.788V220.284H538.22V256.495H459.788V332.881H549.991V369.092Z" fill="white"/>
<path d="M732.001 147.142H666.455V369.092H628.589V147.142H563.203V110.75H732.001V147.142Z" fill="white"/>
<rect x="800" y="225" width="200" height="50" fill="white"/>
<rect x="925" y="150" width="200" height="50" transform="rotate(90 925 150)" fill="white"/>
<rect x="900" y="150" width="25" height="75" fill="#D9D9D9"/>
<rect x="900" y="150" width="25" height="200" fill="#512BD4"/>
<rect x="875" y="150" width="25" height="200" fill="#31B9F9"/>
<rect x="800" y="225" width="75" height="50" fill="#31B9F9"/>
<rect x="925" y="225" width="75" height="50" fill="#512BD4"/>
<defs>
<linearGradient id="paint0_linear_8_39" x1="1327.74" y1="95.0253" x2="1208.83" y2="446.323" gradientUnits="userSpaceOnUse">
<stop stop-color="#114A8B"/>
<stop offset="1" stop-color="#0669BC"/>
</linearGradient>
<linearGradient id="paint1_linear_8_39" x1="1364.88" y1="258.726" x2="1337.38" y2="268.031" gradientUnits="userSpaceOnUse">
<stop stop-opacity="0.3"/>
<stop offset="0.071" stop-opacity="0.2"/>
<stop offset="0.321" stop-opacity="0.1"/>
<stop offset="0.623" stop-opacity="0.05"/>
<stop offset="1" stop-opacity="0"/>
</linearGradient>
<linearGradient id="paint2_linear_8_39" x1="1350.61" y1="84.4537" x2="1481.14" y2="432.222" gradientUnits="userSpaceOnUse">
<stop stop-color="#3CCBF4"/>
<stop offset="1" stop-color="#2892DF"/>
</linearGradient>
</defs>
</svg>
